:FULLY-SPECIFIED
:FORCE-ALL-JOINTS-BE-3DOF
:DEGREES
951
root 1.39703 15.4032 32.7718 6.30215 -2.87209 364.882
lfemur 4.45207 0.568366 2.14472
ltibia 5.84936 0 0
lfoot -30.9847 -14.4403 0
ltoes -30.6241 0 0
rfemur -30.1804 -10.4182 -8.78555
rtibia 47.6705 0 0
rfoot -15.9628 -0.521257 0
rtoes -43.8256 0 0
lowerback -3.27166 -0.876655 -0.465541
upperback -1.38169 -1.12227 -7.14524
thorax 0.270908 -0.588475 -7.22441
lowerneck -7.00112 0.59797 3.56534
upperneck 2.12514 0.326201 3.79434
head 1.85944 0.295289 0.601061
lclavicle 1.80731e-15 -5.41019e-14 0
lhumerus -58.8865 -43.8732 111.792
lradius 55.6319 0 0
lwrist 25.7213 0 0
lhand 41.1671 24.2799 0
lfingers 7.12502 0 0
lthumb 63.3496 33.9408 0
rclavicle 1.80731e-15 -5.41019e-14 0
rhumerus -3.16613 3.78679 -6.78837
rradius 40.7055 0 0
rwrist -16.6446 0 0
rhand -17.9798 -38.326 0
rfingers 7.12502 0 0
rthumb 8.28909 -788.112 0
952
root 1.39609 15.4014 32.7711 6.29295 -2.87747 364.87
lfemur 4.47412 0.570124 2.16608
ltibia 5.83368 0 0
lfoot -30.9952 -14.4102 0
ltoes -30.6512 0 0
rfemur -30.1818 -10.451 -8.76805
rtibia 47.6832 0 0
rfoot -16.006 -0.481205 0
rtoes -43.8053 0 0
lowerback -3.26313 -0.870477 -0.466338
upperback -1.37528 -1.11398 -7.13616
thorax 0.273775 -0.584136 -7.21391
lowerneck -7.00546 0.598247 3.5855
upperneck 2.12557 0.324361 3.7953
head 1.8604 0.294656 0.597897
lclavicle 1.80055e-15 -5.3442e-14 0
lhumerus -58.8821 -43.8937 111.819
lradius 55.6321 0 0
lwrist 25.7202 0 0
lhand 41.1414 24.288 0
lfingers 7.12502 0 0
lthumb 63.3282 33.9759 0
rclavicle 1.80055e-15 -5.3442e-14 0
rhumerus -3.12865 3.5911 -6.73475
rradius 40.6083 0 0
rwrist -16.588 0 0
rhand -18.0729 -38.3471 0
rfingers 7.12502 0 0
rthumb 8.19922 -788.135 0
953
root 1.39514 15.3997 32.7705 6.28375 -2.88286 364.857
lfemur 4.49616 0.571883 2.18743
ltibia 5.81799 0 0
lfoot -31.0057 -14.3801 0
ltoes -30.6783 0 0
rfemur -30.1833 -10.4838 -8.75055
rtibia 47.6959 0 0
rfoot -16.0493 -0.441153 0
rtoes -43.7849 0 0
lowerback -3.25459 -0.8643 -0.467136
upperback -1.36888 -1.1057 -7.12708
thorax 0.276641 -0.579797 -7.20341
lowerneck -7.0098 0.598525 3.60566
upperneck 2.126 0.322521 3.79625
head 1.86136 0.294022 0.594734
lclavicle 1.79379e-15 -5.2782e-14 0
lhumerus -58.8778 -43.9143 111.845
lradius 55.6323 0 0
lwrist 25.7192 0 0
lhand 41.1156 24.2962 0
lfingers 7.12502 0 0
lthumb 63.3068 34.0109 0
rclavicle 1.79379e-15 -5.2782e-14 0
rhumerus -3.09117 3.3954 -6.68113
rradius 40.5111 0 0
rwrist -16.5313 0 0
rhand -18.166 -38.3682 0
rfingers 7.12502 0 0
rthumb 8.10934 -788.157 0
954
root 1.39419 15.398 32.7698 6.27456 -2.88824 364.845
lfemur 4.5182 0.573641 2.20879
ltibia 5.8023 0 0
lfoot -31.0162 -14.3499 0
ltoes -30.7054 0 0
rfemur -30.1847 -10.5166 -8.73305
rtibia 47.7085 0 0
rfoot -16.0925 -0.401101 0
rtoes -43.7646 0 0
lowerback -3.24605 -0.858122 -0.467933
upperback -1.36247 -1.09742 -7.118
thorax 0.279508 -0.575459 -7.19291
lowerneck -7.01414 0.598803 3.62582
upperneck 2.12643 0.320682 3.79721
head 1.86232 0.293388 0.59157
lclavicle 1.78703e-15 -5.21221e-14 0
lhumerus -58.8735 -43.9348 111.872
lradius 55.6325 0 0
lwrist 25.7181 0 0
lhand 41.0899 24.3043 0
lfingers 7.12502 0 0
lthumb 63.2854 34.0459 0
rclavicle 1.78703e-15 -5.21221e-14 0
rhumerus -3.05369 3.19971 -6.6275
rradius 40.414 0 0
rwrist -16.4746 0 0
rhand -18.2591 -38.3893 0
rfingers 7.12502 0 0
rthumb 8.01947 -788.179 0
955
root 1.39324 15.3963 32.7692 6.26536 -2.89362 364.832
lfemur 4.54024 0.5754 2.23015
ltibia 5.78661 0 0
lfoot -31.0267 -14.3198 0
ltoes -30.7325 0 0
rfemur -30.1862 -10.5494 -8.71556
rtibia 47.7212 0 0
rfoot -16.1357 -0.36105 0
rtoes -43.7443 0 0
lowerback -3.23751 -0.851944 -0.468731
upperback -1.35606 -1.08913 -7.10891
thorax 0.282374 -0.57112 -7.18241
lowerneck -7.01848 0.599081 3.64599
upperneck 2.12686 0.318842 3.79816
head 1.86328 0.292755 0.588407
lclavicle 1.78027e-15 -5.14622e-14 0
lhumerus -58.8691 -43.9553 111.898
lradius 55.6327 0 0
lwrist 25.7171 0 0
lhand 41.0642 24.3125 0
lfingers 7.12502 0 0
lthumb 63.264 34.081 0
rclavicle 1.78027e-15 -5.14622e-14 0
rhumerus -3.01621 3.00401 -6.57388
rradius 40.3168 0 0
rwrist -16.4179 0 0
rhand -18.3521 -38.4104 0
rfingers 7.12502 0 0
rthumb 7.92959 -788.201 0
956
root 1.39229 15.3946 32.7685 6.25616 -2.89901 364.819
lfemur 4.56228 0.577158 2.25151
ltibia 5.77092 0 0
lfoot -31.0372 -14.2897 0
ltoes -30.7596 0 0
rfemur -30.1876 -10.5822 -8.69806
rtibia 47.7339 0 0
rfoot -16.1789 -0.320998 0
rtoes -43.7239 0 0
lowerback -3.22898 -0.845766 -0.469528
upperback -1.34966 -1.08085 -7.09983
thorax 0.285241 -0.566781 -7.17191
lowerneck -7.02282 0.599358 3.66615
upperneck 2.12728 0.317003 3.79911
head 1.86424 0.292121 0.585243
lclavicle 1.77351e-15 -5.08023e-14 0
lhumerus -58.8648 -43.9759 111.925
lradius 55.633 0 0
lwrist 25.716 0 0
lhand 41.0384 24.3206 0
lfingers 7.12502 0 0
lthumb 63.2425 34.116 0
rclavicle 1.77351e-15 -5.08023e-14 0
rhumerus -2.97873 2.80832 -6.52025
rradius 40.2196 0 0
rwrist -16.3612 0 0
rhand -18.4452 -38.4315 0
rfingers 7.12502 0 0
rthumb 7.83972 -788.224 0
957
root 1.39135 15.3928 32.7679 6.24696 -2.90439 364.807
lfemur 4.58433 0.578917 2.27286
ltibia 5.75523 0 0
lfoot -31.0477 -14.2596 0
ltoes -30.7867 0 0
rfemur -30.189 -10.615 -8.68056
rtibia 47.7466 0 0
rfoot -16.2221 -0.280946 0
rtoes -43.7036 0 0
lowerback -3.22044 -0.839589 -0.470325
upperback -1.34325 -1.07256 -7.09075
thorax 0.288107 -0.562442 -7.16141
lowerneck -7.02716 0.599636 3.68631
upperneck 2.12771 0.315163 3.80007
head 1.8652 0.291487 0.58208
lclavicle 1.76675e-15 -5.01424e-14 0
lhumerus -58.8605 -43.9964 111.951
lradius 55.6332 0 0
lwrist 25.715 0 0
lhand 41.0127 24.3288 0
lfingers 7.12502 0 0
lthumb 63.2211 34.151 0
rclavicle 1.76675e-15 -5.01424e-14 0
rhumerus -2.94125 2.61262 -6.46663
rradius 40.1224 0 0
rwrist -16.3045 0 0
rhand -18.5383 -38.4526 0
rfingers 7.12502 0 0
rthumb 7.74984 -788.246 0
958
root 1.3904 15.3911 32.7672 6.23776 -2.90977 364.794
lfemur 4.60637 0.580675 2.29422
ltibia 5.73954 0 0
lfoot -31.0582 -14.2294 0
ltoes -30.8138 0 0
rfemur -30.1905 -10.6478 -8.66306
rtibia 47.7593 0 0
rfoot -16.2653 -0.240894 0
rtoes -43.6833 0 0
lowerback -3.2119 -0.833411 -0.471123
upperback -1.33684 -1.06428 -7.08167
thorax 0.290973 -0.558104 -7.15091
lowerneck -7.0315 0.599914 3.70648
upperneck 2.12814 0.313324 3.80102
head 1.86617 0.290854 0.578916
lclavicle 1.75998e-15 -4.94825e-14 0
lhumerus -58.8561 -44.0169 111.977
lradius 55.6334 0 0
lwrist 25.7139 0 0
lhand 40.987 24.3369 0
lfingers 7.12502 0 0
lthumb 63.1997 34.1861 0
rclavicle 1.75998e-15 -4.94825e-14 0
rhumerus -2.90377 2.41693 -6.41301
rradius 40.0253 0 0
rwrist -16.2478 0 0
rhand -18.6314 -38.4737 0
rfingers 7.12502 0 0
rthumb 7.65997 -788.268 0
959
root 1.38945 15.3894 32.7666 6.22856 -2.91515 364.781
lfemur 4.62841 0.582434 2.31558
ltibia 5.72385 0 0
lfoot -31.0687 -14.1993 0
ltoes -30.8409 0 0
rfemur -30.1919 -10.6806 -8.64557
rtibia 47.772 0 0
rfoot -16.3086 -0.200842 0
rtoes -43.6629 0 0
lowerback -3.20337 -0.827233 -0.47192
upperback -1.33043 -1.05599 -7.07259
thorax 0.29384 -0.553765 -7.14041
lowerneck -7.03584 0.600191 3.72664
upperneck 2.12857 0.311484 3.80197
head 1.86713 0.29022 0.575753
lclavicle 1.75322e-15 -4.88226e-14 0
lhumerus -58.8518 -44.0375 112.004
lradius 55.6336 0 0
lwrist 25.7129 0 0
lhand 40.9613 24.3451 0
lfingers 7.12502 0 0
lthumb 63.1783 34.2211 0
rclavicle 1.75322e-15 -4.88226e-14 0
rhumerus -2.86629 2.22123 -6.35938
rradius 39.9281 0 0
rwrist -16.1911 0 0
rhand -18.7245 -38.4948 0
rfingers 7.12502 0 0
rthumb 7.57009 -788.291 0
960
root 1.3885 15.3877 32.7659 6.21936 -2.92054 364.769
lfemur 4.65045 0.584192 2.33694
ltibia 5.70817 0 0
lfoot -31.0792 -14.1692 0
ltoes -30.868 0 0
rfemur -30.1934 -10.7134 -8.62807
rtibia 47.7847 0 0
rfoot -16.3518 -0.16079 0
rtoes -43.6426 0 0
lowerback -3.19483 -0.821056 -0.472718
upperback -1.32403 -1.04771 -7.06351
thorax 0.296706 -0.549426 -7.12991
lowerneck -7.04018 0.600469 3.7468
upperneck 2.129 0.309645 3.80293
head 1.86809 0.289586 0.572589
lclavicle 1.74646e-15 -4.81627e-14 0
lhumerus -58.8475 -44.058 112.03
lradius 55.6338 0 0
lwrist 25.7118 0 0
lhand 40.9355 24.3532 0
lfingers 7.12502 0 0
lthumb 63.1568 34.2561 0
rclavicle 1.74646e-15 -4.81627e-14 0
rhumerus -2.82881 2.02554 -6.30576
rradius 39.8309 0 0
rwrist -16.1344 0 0
rhand -18.8175 -38.5159 0
rfingers 7.12502 0 0
rthumb 7.48022 -788.313 0
961
root 1.38755 15.386 32.7653 6.21016 -2.92592 364.756
lfemur 4.67249 0.585951 2.35829
ltibia 5.69248 0 0
lfoot -31.0897 -14.1391 0
ltoes -30.8951 0 0
rfemur -30.1948 -10.7462 -8.61057
rtibia 47.7974 0 0
rfoot -16.395 -0.120738 0
rtoes -43.6223 0 0
lowerback -3.18629 -0.814878 -0.473515
upperback -1.31762 -1.03943 -7.05442
thorax 0.299573 -0.545088 -7.11941
lowerneck -7.04452 0.600747 3.76696
upperneck 2.12943 0.307805 3.80388
head 1.86905 0.288953 0.569426
lclavicle 1.7397e-15 -4.75028e-14 0
lhumerus -58.8431 -44.0785 112.057
lradius 55.6341 0 0
lwrist 25.7108 0 0
lhand 40.9098 24.3614 0
lfingers 7.12502 0 0
lthumb 63.1354 34.2912 0
rclavicle 1.7397e-15 -4.75028e-14 0
rhumerus -2.79133 1.82985 -6.25214
rradius 39.7337 0 0
rwrist -16.0777 0 0
rhand -18.9106 -38.537 0
rfingers 7.12502 0 0
rthumb 7.39034 -788.335 0
962
root 1.38661 15.3842 32.7646 6.20096 -2.9313 364.743
lfemur 4.69454 0.58771 2.37965
ltibia 5.67679 0 0
lfoot -31.1002 -14.1089 0
ltoes -30.9222 0 0
rfemur -30.1963 -10.779 -8.59307
rtibia 47.8101 0 0
rfoot -16.4382 -0.0806862 0
rtoes -43.6019 0 0
lowerback -3.17775 -0.8087 -0.474312
upperback -1.31121 -1.03114 -7.04534
thorax 0.302439 -0.540749 -7.1089
lowerneck -7.04886 0.601025 3.78713
upperneck 2.12986 0.305966 3.80484
head 1.87001 0.288319 0.566263
lclavicle 1.73294e-15 -4.68428e-14 0
lhumerus -58.8388 -44.0991 112.083
lradius 55.6343 0 0
lwrist 25.7097 0 0
lhand 40.8841 24.3695 0
lfingers 7.12502 0 0
lthumb 63.114 34.3262 0
rclavicle 1.73294e-15 -4.68428e-14 0
rhumerus -2.75385 1.63415 -6.19851
rradius 39.6366 0 0
rwrist -16.021 0 0
rhand -19.0037 -38.5581 0
rfingers 7.12502 0 0
rthumb 7.30047 -788.357 0
963
root 1.38566 15.3825 32.764 6.19176 -2.93668 364.731
lfemur 4.71658 0.589468 2.40101
ltibia 5.6611 0 0
lfoot -31.1107 -14.0788 0
ltoes -30.9493 0 0
rfemur -30.1977 -10.8118 -8.57558
rtibia 47.8228 0 0
rfoot -16.4814 -0.0406343 0
rtoes -43.5816 0 0
lowerback -3.16922 -0.802523 -0.47511
upperback -1.3048 -1.02286 -7.03626
thorax 0.305306 -0.53641 -7.0984
lowerneck -7.0532 0.601302 3.80729
upperneck 2.13029 0.304126 3.80579
head 1.87097 0.287685 0.563099
lclavicle 1.72618e-15 -4.61829e-14 0
lhumerus -58.8345 -44.1196 112.11
lradius 55.6345 0 0
lwrist 25.7087 0 0
lhand 40.8584 24.3777 0
lfingers 7.12502 0 0
lthumb 63.0926 34.3612 0
rclavicle 1.72618e-15 -4.61829e-14 0
rhumerus -2.71637 1.43846 -6.14489
rradius 39.5394 0 0
rwrist -15.9643 0 0
rhand -19.0968 -38.5792 0
rfingers 7.12502 0 0
rthumb 7.21059 -788.38 0
964
root 1.38471 15.3808 32.7633 6.18256 -2.94207 364.718
lfemur 4.73862 0.591227 2.42237
ltibia 5.64541 0 0
lfoot -31.1211 -14.0487 0
ltoes -30.9764 0 0
rfemur -30.1992 -10.8446 -8.55808
rtibia 47.8354 0 0
rfoot -16.5247 -0.000582381 0
rtoes -43.5613 0 0
lowerback -3.16068 -0.796345 -0.475907
upperback -1.2984 -1.01457 -7.02718
thorax 0.308172 -0.532072 -7.0879
lowerneck -7.05755 0.60158 3.82745
upperneck 2.13072 0.302286 3.80674
head 1.87193 0.287052 0.559936
lclavicle 1.71942e-15 -4.5523e-14 0
lhumerus -58.8301 -44.1401 112.136
lradius 55.6347 0 0
lwrist 25.7076 0 0
lhand 40.8326 24.3858 0
lfingers 7.12502 0 0
lthumb 63.0712 34.3963 0
rclavicle 1.71942e-15 -4.5523e-14 0
rhumerus -2.67889 1.24276 -6.09126
rradius 39.4422 0 0
rwrist -15.9076 0 0
rhand -19.1898 -38.6003 0
rfingers 7.12502 0 0
rthumb 7.12072 -788.402 0
